<mxfile host="app.diagrams.net" modified="2021-05-17T23:28:26.411Z" agent="5.0 (Windows NT 10.0; Win64; x64) AppleWebKit/537.36 (KHTML, like Gecko) Chrome/90.0.4430.212 Safari/537.36" etag="F3-M87e9bnUuFQXFnvFf" version="14.4.2" type="github">
  <diagram name="Page-1" id="97916047-d0de-89f5-080d-49f4d83e522f">
    <mxGraphModel dx="1872" dy="3956" grid="1" gridSize="10" guides="1" tooltips="1" connect="1" arrows="1" fold="1" page="1" pageScale="1.5" pageWidth="1169" pageHeight="827" background="#ffffff" math="0" shadow="0">
      <root>
        <mxCell id="0" />
        <mxCell id="1" parent="0" />
        <mxCell id="0-Hnq-u8Xx0a8E54Keop-82" style="edgeStyle=orthogonalEdgeStyle;rounded=0;orthogonalLoop=1;jettySize=auto;html=1;entryX=0.5;entryY=0;entryDx=0;entryDy=0;" edge="1" parent="1" source="0-Hnq-u8Xx0a8E54Keop-56" target="0-Hnq-u8Xx0a8E54Keop-81">
          <mxGeometry relative="1" as="geometry" />
        </mxCell>
        <mxCell id="0-Hnq-u8Xx0a8E54Keop-56" value="INICIO" style="ellipse;whiteSpace=wrap;html=1;" vertex="1" parent="1">
          <mxGeometry x="909" y="70" width="120" height="80" as="geometry" />
        </mxCell>
        <mxCell id="0-Hnq-u8Xx0a8E54Keop-112" style="edgeStyle=orthogonalEdgeStyle;rounded=0;orthogonalLoop=1;jettySize=auto;html=1;exitX=0.5;exitY=1;exitDx=0;exitDy=0;entryX=0.5;entryY=0;entryDx=0;entryDy=0;" edge="1" parent="1" source="0-Hnq-u8Xx0a8E54Keop-81" target="0-Hnq-u8Xx0a8E54Keop-111">
          <mxGeometry relative="1" as="geometry">
            <mxPoint x="970" y="280" as="sourcePoint" />
          </mxGeometry>
        </mxCell>
        <mxCell id="0-Hnq-u8Xx0a8E54Keop-77" style="edgeStyle=orthogonalEdgeStyle;rounded=0;orthogonalLoop=1;jettySize=auto;html=1;exitX=0;exitY=0.5;exitDx=0;exitDy=0;entryX=0.5;entryY=0;entryDx=0;entryDy=0;" edge="1" parent="1" source="0-Hnq-u8Xx0a8E54Keop-71" target="0-Hnq-u8Xx0a8E54Keop-73">
          <mxGeometry relative="1" as="geometry" />
        </mxCell>
        <mxCell id="0-Hnq-u8Xx0a8E54Keop-78" style="edgeStyle=orthogonalEdgeStyle;rounded=0;orthogonalLoop=1;jettySize=auto;html=1;exitX=0.25;exitY=1;exitDx=0;exitDy=0;" edge="1" parent="1" source="0-Hnq-u8Xx0a8E54Keop-71" target="0-Hnq-u8Xx0a8E54Keop-74">
          <mxGeometry relative="1" as="geometry" />
        </mxCell>
        <mxCell id="0-Hnq-u8Xx0a8E54Keop-79" style="edgeStyle=orthogonalEdgeStyle;rounded=0;orthogonalLoop=1;jettySize=auto;html=1;exitX=0.75;exitY=1;exitDx=0;exitDy=0;entryX=0.5;entryY=0;entryDx=0;entryDy=0;" edge="1" parent="1" source="0-Hnq-u8Xx0a8E54Keop-71" target="0-Hnq-u8Xx0a8E54Keop-75">
          <mxGeometry relative="1" as="geometry" />
        </mxCell>
        <mxCell id="0-Hnq-u8Xx0a8E54Keop-80" style="edgeStyle=orthogonalEdgeStyle;rounded=0;orthogonalLoop=1;jettySize=auto;html=1;entryX=0.5;entryY=0;entryDx=0;entryDy=0;" edge="1" parent="1" source="0-Hnq-u8Xx0a8E54Keop-71" target="0-Hnq-u8Xx0a8E54Keop-76">
          <mxGeometry relative="1" as="geometry" />
        </mxCell>
        <mxCell id="0-Hnq-u8Xx0a8E54Keop-71" value="SWITCH CASE" style="rounded=0;whiteSpace=wrap;html=1;" vertex="1" parent="1">
          <mxGeometry x="909" y="570" width="120" height="60" as="geometry" />
        </mxCell>
        <mxCell id="0-Hnq-u8Xx0a8E54Keop-90" style="edgeStyle=orthogonalEdgeStyle;rounded=0;orthogonalLoop=1;jettySize=auto;html=1;exitX=0.5;exitY=1;exitDx=0;exitDy=0;entryX=0.5;entryY=0;entryDx=0;entryDy=0;" edge="1" parent="1" source="0-Hnq-u8Xx0a8E54Keop-73" target="0-Hnq-u8Xx0a8E54Keop-84">
          <mxGeometry relative="1" as="geometry" />
        </mxCell>
        <mxCell id="0-Hnq-u8Xx0a8E54Keop-73" value="CASE 1" style="rounded=0;whiteSpace=wrap;html=1;" vertex="1" parent="1">
          <mxGeometry x="650.5" y="720" width="120" height="60" as="geometry" />
        </mxCell>
        <mxCell id="0-Hnq-u8Xx0a8E54Keop-91" style="edgeStyle=orthogonalEdgeStyle;rounded=0;orthogonalLoop=1;jettySize=auto;html=1;entryX=0.5;entryY=0;entryDx=0;entryDy=0;" edge="1" parent="1" source="0-Hnq-u8Xx0a8E54Keop-74" target="0-Hnq-u8Xx0a8E54Keop-85">
          <mxGeometry relative="1" as="geometry" />
        </mxCell>
        <mxCell id="0-Hnq-u8Xx0a8E54Keop-74" value="CASE 2" style="rounded=0;whiteSpace=wrap;html=1;" vertex="1" parent="1">
          <mxGeometry x="817.5" y="720" width="120" height="60" as="geometry" />
        </mxCell>
        <mxCell id="0-Hnq-u8Xx0a8E54Keop-92" style="edgeStyle=orthogonalEdgeStyle;rounded=0;orthogonalLoop=1;jettySize=auto;html=1;entryX=0.5;entryY=0;entryDx=0;entryDy=0;" edge="1" parent="1" source="0-Hnq-u8Xx0a8E54Keop-75" target="0-Hnq-u8Xx0a8E54Keop-86">
          <mxGeometry relative="1" as="geometry" />
        </mxCell>
        <mxCell id="0-Hnq-u8Xx0a8E54Keop-75" value="CASE 3" style="rounded=0;whiteSpace=wrap;html=1;" vertex="1" parent="1">
          <mxGeometry x="1000.5" y="720" width="120" height="60" as="geometry" />
        </mxCell>
        <mxCell id="0-Hnq-u8Xx0a8E54Keop-89" style="edgeStyle=orthogonalEdgeStyle;rounded=0;orthogonalLoop=1;jettySize=auto;html=1;exitX=0.5;exitY=1;exitDx=0;exitDy=0;entryX=0.5;entryY=0;entryDx=0;entryDy=0;" edge="1" parent="1" source="0-Hnq-u8Xx0a8E54Keop-76" target="0-Hnq-u8Xx0a8E54Keop-88">
          <mxGeometry relative="1" as="geometry" />
        </mxCell>
        <mxCell id="0-Hnq-u8Xx0a8E54Keop-76" value="CASE 4" style="rounded=0;whiteSpace=wrap;html=1;" vertex="1" parent="1">
          <mxGeometry x="1167.5" y="720" width="120" height="60" as="geometry" />
        </mxCell>
        <mxCell id="0-Hnq-u8Xx0a8E54Keop-81" value="&lt;font style=&quot;font-size: 17px&quot;&gt;main();&lt;/font&gt;" style="shape=hexagon;perimeter=hexagonPerimeter2;whiteSpace=wrap;html=1;fixedSize=1;fontStyle=3" vertex="1" parent="1">
          <mxGeometry x="909" y="210" width="120" height="80" as="geometry" />
        </mxCell>
        <mxCell id="0-Hnq-u8Xx0a8E54Keop-97" style="edgeStyle=orthogonalEdgeStyle;rounded=0;orthogonalLoop=1;jettySize=auto;html=1;exitX=0;exitY=0.5;exitDx=0;exitDy=0;entryX=0.5;entryY=0;entryDx=0;entryDy=0;" edge="1" parent="1" source="0-Hnq-u8Xx0a8E54Keop-84" target="0-Hnq-u8Xx0a8E54Keop-93">
          <mxGeometry relative="1" as="geometry" />
        </mxCell>
        <mxCell id="0-Hnq-u8Xx0a8E54Keop-84" value="&lt;font style=&quot;font-size: 17px&quot;&gt;Instruções();&lt;/font&gt;" style="shape=hexagon;perimeter=hexagonPerimeter2;whiteSpace=wrap;html=1;fixedSize=1;fontStyle=3" vertex="1" parent="1">
          <mxGeometry x="650.5" y="830" width="120" height="80" as="geometry" />
        </mxCell>
        <mxCell id="0-Hnq-u8Xx0a8E54Keop-106" style="edgeStyle=orthogonalEdgeStyle;rounded=0;orthogonalLoop=1;jettySize=auto;html=1;exitX=0.5;exitY=1;exitDx=0;exitDy=0;entryX=0.5;entryY=0;entryDx=0;entryDy=0;" edge="1" parent="1" source="0-Hnq-u8Xx0a8E54Keop-85" target="0-Hnq-u8Xx0a8E54Keop-105">
          <mxGeometry relative="1" as="geometry" />
        </mxCell>
        <mxCell id="0-Hnq-u8Xx0a8E54Keop-85" value="&lt;font style=&quot;font-size: 17px&quot;&gt;Jogar();&lt;/font&gt;" style="shape=hexagon;perimeter=hexagonPerimeter2;whiteSpace=wrap;html=1;fixedSize=1;fontStyle=3" vertex="1" parent="1">
          <mxGeometry x="817.5" y="830" width="120" height="80" as="geometry" />
        </mxCell>
        <mxCell id="0-Hnq-u8Xx0a8E54Keop-102" style="edgeStyle=orthogonalEdgeStyle;rounded=0;orthogonalLoop=1;jettySize=auto;html=1;exitX=0.5;exitY=1;exitDx=0;exitDy=0;entryX=0.5;entryY=0;entryDx=0;entryDy=0;" edge="1" parent="1" source="0-Hnq-u8Xx0a8E54Keop-86" target="0-Hnq-u8Xx0a8E54Keop-100">
          <mxGeometry relative="1" as="geometry" />
        </mxCell>
        <mxCell id="0-Hnq-u8Xx0a8E54Keop-86" value="&lt;font style=&quot;font-size: 17px&quot;&gt;Créditos();&lt;/font&gt;" style="shape=hexagon;perimeter=hexagonPerimeter2;whiteSpace=wrap;html=1;fixedSize=1;fontStyle=3" vertex="1" parent="1">
          <mxGeometry x="1000.5" y="830" width="120" height="80" as="geometry" />
        </mxCell>
        <mxCell id="0-Hnq-u8Xx0a8E54Keop-88" value="FIM" style="ellipse;whiteSpace=wrap;html=1;" vertex="1" parent="1">
          <mxGeometry x="1167.5" y="830" width="120" height="80" as="geometry" />
        </mxCell>
        <mxCell id="0-Hnq-u8Xx0a8E54Keop-98" style="edgeStyle=orthogonalEdgeStyle;rounded=0;orthogonalLoop=1;jettySize=auto;html=1;exitX=0.5;exitY=1;exitDx=0;exitDy=0;entryX=0.5;entryY=0;entryDx=0;entryDy=0;" edge="1" parent="1" source="0-Hnq-u8Xx0a8E54Keop-93" target="0-Hnq-u8Xx0a8E54Keop-96">
          <mxGeometry relative="1" as="geometry" />
        </mxCell>
        <mxCell id="0-Hnq-u8Xx0a8E54Keop-93" value="&lt;font style=&quot;font-size: 17px&quot;&gt;Texto_Formatado();&lt;/font&gt;" style="shape=hexagon;perimeter=hexagonPerimeter2;whiteSpace=wrap;html=1;fixedSize=1;fontStyle=3" vertex="1" parent="1">
          <mxGeometry x="409" y="950" width="200" height="110" as="geometry" />
        </mxCell>
        <mxCell id="0-Hnq-u8Xx0a8E54Keop-116" style="edgeStyle=orthogonalEdgeStyle;rounded=0;orthogonalLoop=1;jettySize=auto;html=1;exitX=0;exitY=0.5;exitDx=0;exitDy=0;entryX=0;entryY=0.5;entryDx=0;entryDy=0;" edge="1" parent="1" source="0-Hnq-u8Xx0a8E54Keop-96" target="0-Hnq-u8Xx0a8E54Keop-81">
          <mxGeometry relative="1" as="geometry">
            <Array as="points">
              <mxPoint x="409" y="1170" />
              <mxPoint x="320" y="1170" />
              <mxPoint x="320" y="250" />
            </Array>
          </mxGeometry>
        </mxCell>
        <mxCell id="0-Hnq-u8Xx0a8E54Keop-96" value="&lt;font style=&quot;font-size: 17px&quot;&gt;Sair();&lt;/font&gt;" style="shape=hexagon;perimeter=hexagonPerimeter2;whiteSpace=wrap;html=1;fixedSize=1;fontStyle=3" vertex="1" parent="1">
          <mxGeometry x="409" y="1120" width="200" height="110" as="geometry" />
        </mxCell>
        <mxCell id="0-Hnq-u8Xx0a8E54Keop-103" style="edgeStyle=orthogonalEdgeStyle;rounded=0;orthogonalLoop=1;jettySize=auto;html=1;exitX=0.5;exitY=1;exitDx=0;exitDy=0;entryX=0.5;entryY=0;entryDx=0;entryDy=0;" edge="1" parent="1" source="0-Hnq-u8Xx0a8E54Keop-100" target="0-Hnq-u8Xx0a8E54Keop-101">
          <mxGeometry relative="1" as="geometry" />
        </mxCell>
        <mxCell id="0-Hnq-u8Xx0a8E54Keop-100" value="&lt;font style=&quot;font-size: 17px&quot;&gt;Texto_Formatado();&lt;/font&gt;" style="shape=hexagon;perimeter=hexagonPerimeter2;whiteSpace=wrap;html=1;fixedSize=1;fontStyle=3" vertex="1" parent="1">
          <mxGeometry x="960.5" y="950" width="200" height="110" as="geometry" />
        </mxCell>
        <mxCell id="0-Hnq-u8Xx0a8E54Keop-117" style="edgeStyle=orthogonalEdgeStyle;rounded=0;orthogonalLoop=1;jettySize=auto;html=1;entryX=1;entryY=0.5;entryDx=0;entryDy=0;" edge="1" parent="1" source="0-Hnq-u8Xx0a8E54Keop-101" target="0-Hnq-u8Xx0a8E54Keop-81">
          <mxGeometry relative="1" as="geometry">
            <Array as="points">
              <mxPoint x="1440" y="1175" />
              <mxPoint x="1440" y="250" />
            </Array>
          </mxGeometry>
        </mxCell>
        <mxCell id="0-Hnq-u8Xx0a8E54Keop-101" value="&lt;font style=&quot;font-size: 17px&quot;&gt;Sair();&lt;/font&gt;" style="shape=hexagon;perimeter=hexagonPerimeter2;whiteSpace=wrap;html=1;fixedSize=1;fontStyle=3" vertex="1" parent="1">
          <mxGeometry x="960.5" y="1120" width="200" height="110" as="geometry" />
        </mxCell>
        <mxCell id="0-Hnq-u8Xx0a8E54Keop-125" style="edgeStyle=orthogonalEdgeStyle;rounded=0;orthogonalLoop=1;jettySize=auto;html=1;exitX=0.5;exitY=1;exitDx=0;exitDy=0;entryX=0.5;entryY=0;entryDx=0;entryDy=0;fontColor=#FF0000;" edge="1" parent="1" source="0-Hnq-u8Xx0a8E54Keop-105" target="0-Hnq-u8Xx0a8E54Keop-123">
          <mxGeometry relative="1" as="geometry" />
        </mxCell>
        <mxCell id="0-Hnq-u8Xx0a8E54Keop-105" value="&lt;font style=&quot;font-size: 17px&quot;&gt;Texto_Formatado();&lt;/font&gt;" style="shape=hexagon;perimeter=hexagonPerimeter2;whiteSpace=wrap;html=1;fixedSize=1;fontStyle=3" vertex="1" parent="1">
          <mxGeometry x="777" y="1360" width="200" height="110" as="geometry" />
        </mxCell>
        <mxCell id="0-Hnq-u8Xx0a8E54Keop-128" style="edgeStyle=orthogonalEdgeStyle;rounded=0;orthogonalLoop=1;jettySize=auto;html=1;entryX=0.5;entryY=0;entryDx=0;entryDy=0;fontColor=#FF0000;" edge="1" parent="1" source="0-Hnq-u8Xx0a8E54Keop-107" target="0-Hnq-u8Xx0a8E54Keop-127">
          <mxGeometry relative="1" as="geometry" />
        </mxCell>
        <mxCell id="0-Hnq-u8Xx0a8E54Keop-107" value="ESCOLHE DIFICULDADE" style="rounded=0;whiteSpace=wrap;html=1;" vertex="1" parent="1">
          <mxGeometry x="817" y="1760" width="120" height="60" as="geometry" />
        </mxCell>
        <mxCell id="0-Hnq-u8Xx0a8E54Keop-120" style="edgeStyle=orthogonalEdgeStyle;rounded=0;orthogonalLoop=1;jettySize=auto;html=1;exitX=0.5;exitY=1;exitDx=0;exitDy=0;entryX=0.5;entryY=0;entryDx=0;entryDy=0;fontColor=#FF0000;" edge="1" parent="1" source="0-Hnq-u8Xx0a8E54Keop-111" target="0-Hnq-u8Xx0a8E54Keop-119">
          <mxGeometry relative="1" as="geometry" />
        </mxCell>
        <mxCell id="0-Hnq-u8Xx0a8E54Keop-111" value="&lt;font style=&quot;font-size: 17px&quot;&gt;Option();&lt;/font&gt;" style="shape=hexagon;perimeter=hexagonPerimeter2;whiteSpace=wrap;html=1;fixedSize=1;fontStyle=3" vertex="1" parent="1">
          <mxGeometry x="909" y="330" width="120" height="80" as="geometry" />
        </mxCell>
        <mxCell id="0-Hnq-u8Xx0a8E54Keop-121" style="edgeStyle=orthogonalEdgeStyle;rounded=0;orthogonalLoop=1;jettySize=auto;html=1;entryX=0.5;entryY=0;entryDx=0;entryDy=0;fontColor=#FF0000;" edge="1" parent="1" source="0-Hnq-u8Xx0a8E54Keop-119" target="0-Hnq-u8Xx0a8E54Keop-71">
          <mxGeometry relative="1" as="geometry" />
        </mxCell>
        <mxCell id="0-Hnq-u8Xx0a8E54Keop-119" value="&lt;font color=&quot;#000000&quot;&gt;&lt;span style=&quot;font-weight: normal&quot;&gt;Atualiza&lt;/span&gt;&lt;br&gt;public static String&lt;/font&gt; opcao" style="shape=parallelogram;perimeter=parallelogramPerimeter;whiteSpace=wrap;html=1;fixedSize=1;fontStyle=1;fontColor=#FF0000;" vertex="1" parent="1">
          <mxGeometry x="873.5" y="450" width="191" height="60" as="geometry" />
        </mxCell>
        <mxCell id="0-Hnq-u8Xx0a8E54Keop-122" style="edgeStyle=orthogonalEdgeStyle;rounded=0;orthogonalLoop=1;jettySize=auto;html=1;exitX=0.5;exitY=1;exitDx=0;exitDy=0;entryX=0.5;entryY=0;entryDx=0;entryDy=0;fontColor=#FF0000;" edge="1" parent="1" source="0-Hnq-u8Xx0a8E54Keop-123" target="0-Hnq-u8Xx0a8E54Keop-124">
          <mxGeometry relative="1" as="geometry" />
        </mxCell>
        <mxCell id="0-Hnq-u8Xx0a8E54Keop-123" value="&lt;font style=&quot;font-size: 17px&quot;&gt;Option();&lt;/font&gt;" style="shape=hexagon;perimeter=hexagonPerimeter2;whiteSpace=wrap;html=1;fixedSize=1;fontStyle=3" vertex="1" parent="1">
          <mxGeometry x="817.5" y="1530" width="120" height="80" as="geometry" />
        </mxCell>
        <mxCell id="0-Hnq-u8Xx0a8E54Keop-126" style="edgeStyle=orthogonalEdgeStyle;rounded=0;orthogonalLoop=1;jettySize=auto;html=1;entryX=0.5;entryY=0;entryDx=0;entryDy=0;fontColor=#FF0000;" edge="1" parent="1" source="0-Hnq-u8Xx0a8E54Keop-124" target="0-Hnq-u8Xx0a8E54Keop-107">
          <mxGeometry relative="1" as="geometry" />
        </mxCell>
        <mxCell id="0-Hnq-u8Xx0a8E54Keop-124" value="&lt;font color=&quot;#000000&quot;&gt;&lt;span style=&quot;font-weight: normal&quot;&gt;Atualiza&lt;/span&gt;&lt;br&gt;public static String&lt;/font&gt; opcao" style="shape=parallelogram;perimeter=parallelogramPerimeter;whiteSpace=wrap;html=1;fixedSize=1;fontStyle=1;fontColor=#FF0000;" vertex="1" parent="1">
          <mxGeometry x="782" y="1650" width="191" height="60" as="geometry" />
        </mxCell>
        <mxCell id="0-Hnq-u8Xx0a8E54Keop-134" style="edgeStyle=orthogonalEdgeStyle;rounded=0;orthogonalLoop=1;jettySize=auto;html=1;exitX=0.5;exitY=1;exitDx=0;exitDy=0;entryX=0.5;entryY=0;entryDx=0;entryDy=0;fontColor=#FF0000;" edge="1" parent="1" source="0-Hnq-u8Xx0a8E54Keop-127" target="0-Hnq-u8Xx0a8E54Keop-130">
          <mxGeometry relative="1" as="geometry" />
        </mxCell>
        <mxCell id="0-Hnq-u8Xx0a8E54Keop-127" value="&lt;font color=&quot;#000000&quot;&gt;&lt;span style=&quot;font-weight: normal&quot;&gt;Atualiza&lt;/span&gt;&lt;br&gt;public static int&amp;nbsp;&lt;/font&gt;dificuldade" style="shape=parallelogram;perimeter=parallelogramPerimeter;whiteSpace=wrap;html=1;fixedSize=1;fontStyle=1;fontColor=#FF0000;" vertex="1" parent="1">
          <mxGeometry x="782" y="1890" width="191" height="60" as="geometry" />
        </mxCell>
        <mxCell id="0-Hnq-u8Xx0a8E54Keop-129" style="edgeStyle=orthogonalEdgeStyle;rounded=0;orthogonalLoop=1;jettySize=auto;html=1;exitX=0.5;exitY=1;exitDx=0;exitDy=0;entryX=0.5;entryY=0;entryDx=0;entryDy=0;fontColor=#FF0000;" edge="1" parent="1" source="0-Hnq-u8Xx0a8E54Keop-130" target="0-Hnq-u8Xx0a8E54Keop-132">
          <mxGeometry relative="1" as="geometry" />
        </mxCell>
        <mxCell id="0-Hnq-u8Xx0a8E54Keop-130" value="&lt;font style=&quot;font-size: 17px&quot;&gt;Texto_Formatado();&lt;/font&gt;" style="shape=hexagon;perimeter=hexagonPerimeter2;whiteSpace=wrap;html=1;fixedSize=1;fontStyle=3" vertex="1" parent="1">
          <mxGeometry x="777.5" y="2000" width="200" height="110" as="geometry" />
        </mxCell>
        <mxCell id="0-Hnq-u8Xx0a8E54Keop-131" style="edgeStyle=orthogonalEdgeStyle;rounded=0;orthogonalLoop=1;jettySize=auto;html=1;exitX=0.5;exitY=1;exitDx=0;exitDy=0;entryX=0.5;entryY=0;entryDx=0;entryDy=0;fontColor=#FF0000;" edge="1" parent="1" source="0-Hnq-u8Xx0a8E54Keop-132" target="0-Hnq-u8Xx0a8E54Keop-133">
          <mxGeometry relative="1" as="geometry" />
        </mxCell>
        <mxCell id="0-Hnq-u8Xx0a8E54Keop-132" value="&lt;font style=&quot;font-size: 17px&quot;&gt;Option();&lt;/font&gt;" style="shape=hexagon;perimeter=hexagonPerimeter2;whiteSpace=wrap;html=1;fixedSize=1;fontStyle=3" vertex="1" parent="1">
          <mxGeometry x="818" y="2170" width="120" height="80" as="geometry" />
        </mxCell>
        <mxCell id="0-Hnq-u8Xx0a8E54Keop-136" style="edgeStyle=orthogonalEdgeStyle;rounded=0;orthogonalLoop=1;jettySize=auto;html=1;entryX=0.5;entryY=0;entryDx=0;entryDy=0;fontColor=#FF0000;" edge="1" parent="1" source="0-Hnq-u8Xx0a8E54Keop-133" target="0-Hnq-u8Xx0a8E54Keop-135">
          <mxGeometry relative="1" as="geometry" />
        </mxCell>
        <mxCell id="0-Hnq-u8Xx0a8E54Keop-133" value="&lt;font color=&quot;#000000&quot;&gt;&lt;span style=&quot;font-weight: normal&quot;&gt;Atualiza&lt;/span&gt;&lt;br&gt;public static String&lt;/font&gt; nomeJogador" style="shape=parallelogram;perimeter=parallelogramPerimeter;whiteSpace=wrap;html=1;fixedSize=1;fontStyle=1;fontColor=#FF0000;" vertex="1" parent="1">
          <mxGeometry x="782.5" y="2290" width="191" height="60" as="geometry" />
        </mxCell>
        <mxCell id="0-Hnq-u8Xx0a8E54Keop-168" style="edgeStyle=orthogonalEdgeStyle;rounded=0;orthogonalLoop=1;jettySize=auto;html=1;entryX=0;entryY=0.5;entryDx=0;entryDy=0;endArrow=classic;endFill=1;fontColor=#FF0000;" edge="1" parent="1" source="0-Hnq-u8Xx0a8E54Keop-135" target="0-Hnq-u8Xx0a8E54Keop-137">
          <mxGeometry relative="1" as="geometry" />
        </mxCell>
        <mxCell id="0-Hnq-u8Xx0a8E54Keop-135" value="&lt;font style=&quot;font-size: 17px&quot;&gt;Prefacio();&lt;/font&gt;" style="shape=hexagon;perimeter=hexagonPerimeter2;whiteSpace=wrap;html=1;fixedSize=1;fontStyle=3" vertex="1" parent="1">
          <mxGeometry x="1490" y="1400" width="200" height="110" as="geometry" />
        </mxCell>
        <mxCell id="0-Hnq-u8Xx0a8E54Keop-169" style="edgeStyle=orthogonalEdgeStyle;rounded=0;orthogonalLoop=1;jettySize=auto;html=1;entryX=0;entryY=0.5;entryDx=0;entryDy=0;endArrow=classic;endFill=1;fontColor=#FF0000;" edge="1" parent="1" source="0-Hnq-u8Xx0a8E54Keop-137" target="0-Hnq-u8Xx0a8E54Keop-138">
          <mxGeometry relative="1" as="geometry" />
        </mxCell>
        <mxCell id="0-Hnq-u8Xx0a8E54Keop-137" value="&lt;font style=&quot;font-size: 17px&quot;&gt;Templo_1();&lt;/font&gt;" style="shape=hexagon;perimeter=hexagonPerimeter2;whiteSpace=wrap;html=1;fixedSize=1;fontStyle=3" vertex="1" parent="1">
          <mxGeometry x="1740" y="1400" width="200" height="110" as="geometry" />
        </mxCell>
        <mxCell id="0-Hnq-u8Xx0a8E54Keop-170" style="edgeStyle=orthogonalEdgeStyle;rounded=0;orthogonalLoop=1;jettySize=auto;html=1;entryX=0;entryY=0.5;entryDx=0;entryDy=0;endArrow=classic;endFill=1;fontColor=#FF0000;" edge="1" parent="1" source="0-Hnq-u8Xx0a8E54Keop-138" target="0-Hnq-u8Xx0a8E54Keop-139">
          <mxGeometry relative="1" as="geometry" />
        </mxCell>
        <mxCell id="0-Hnq-u8Xx0a8E54Keop-138" value="&lt;font style=&quot;font-size: 17px&quot;&gt;Templo_2();&lt;/font&gt;" style="shape=hexagon;perimeter=hexagonPerimeter2;whiteSpace=wrap;html=1;fixedSize=1;fontStyle=3" vertex="1" parent="1">
          <mxGeometry x="1990" y="1400" width="200" height="110" as="geometry" />
        </mxCell>
        <mxCell id="0-Hnq-u8Xx0a8E54Keop-171" style="edgeStyle=orthogonalEdgeStyle;rounded=0;orthogonalLoop=1;jettySize=auto;html=1;entryX=0;entryY=0.5;entryDx=0;entryDy=0;endArrow=classic;endFill=1;fontColor=#FF0000;" edge="1" parent="1" source="0-Hnq-u8Xx0a8E54Keop-139" target="0-Hnq-u8Xx0a8E54Keop-163">
          <mxGeometry relative="1" as="geometry" />
        </mxCell>
        <mxCell id="0-Hnq-u8Xx0a8E54Keop-139" value="&lt;font style=&quot;font-size: 17px&quot;&gt;Templo_3();&lt;/font&gt;" style="shape=hexagon;perimeter=hexagonPerimeter2;whiteSpace=wrap;html=1;fixedSize=1;fontStyle=3" vertex="1" parent="1">
          <mxGeometry x="2240" y="1400" width="200" height="110" as="geometry" />
        </mxCell>
        <mxCell id="0-Hnq-u8Xx0a8E54Keop-172" style="edgeStyle=orthogonalEdgeStyle;rounded=0;orthogonalLoop=1;jettySize=auto;html=1;entryX=0;entryY=0.5;entryDx=0;entryDy=0;endArrow=classic;endFill=1;fontColor=#FF0000;" edge="1" parent="1" source="0-Hnq-u8Xx0a8E54Keop-163" target="0-Hnq-u8Xx0a8E54Keop-165">
          <mxGeometry relative="1" as="geometry" />
        </mxCell>
        <mxCell id="0-Hnq-u8Xx0a8E54Keop-163" value="&lt;font style=&quot;font-size: 17px&quot;&gt;Boss();&lt;/font&gt;" style="shape=hexagon;perimeter=hexagonPerimeter2;whiteSpace=wrap;html=1;fixedSize=1;fontStyle=3" vertex="1" parent="1">
          <mxGeometry x="2490" y="1400" width="200" height="110" as="geometry" />
        </mxCell>
        <mxCell id="0-Hnq-u8Xx0a8E54Keop-174" style="edgeStyle=orthogonalEdgeStyle;rounded=0;orthogonalLoop=1;jettySize=auto;html=1;entryX=0.5;entryY=1;entryDx=0;entryDy=0;endArrow=classic;endFill=1;fontColor=#FF0000;" edge="1" parent="1" source="0-Hnq-u8Xx0a8E54Keop-165" target="0-Hnq-u8Xx0a8E54Keop-173">
          <mxGeometry relative="1" as="geometry" />
        </mxCell>
        <mxCell id="0-Hnq-u8Xx0a8E54Keop-165" value="&lt;font style=&quot;font-size: 17px&quot;&gt;End();&lt;/font&gt;" style="shape=hexagon;perimeter=hexagonPerimeter2;whiteSpace=wrap;html=1;fixedSize=1;fontStyle=3" vertex="1" parent="1">
          <mxGeometry x="2760" y="1400" width="200" height="110" as="geometry" />
        </mxCell>
        <mxCell id="0-Hnq-u8Xx0a8E54Keop-175" style="edgeStyle=orthogonalEdgeStyle;rounded=0;orthogonalLoop=1;jettySize=auto;html=1;entryX=1;entryY=0.5;entryDx=0;entryDy=0;endArrow=classic;endFill=1;fontColor=#FF0000;" edge="1" parent="1" source="0-Hnq-u8Xx0a8E54Keop-173" target="0-Hnq-u8Xx0a8E54Keop-88">
          <mxGeometry relative="1" as="geometry" />
        </mxCell>
        <mxCell id="0-Hnq-u8Xx0a8E54Keop-173" value="&lt;font style=&quot;font-size: 17px&quot;&gt;Créditos();&lt;/font&gt;" style="shape=hexagon;perimeter=hexagonPerimeter2;whiteSpace=wrap;html=1;fixedSize=1;fontStyle=3" vertex="1" parent="1">
          <mxGeometry x="2800" y="1210" width="120" height="80" as="geometry" />
        </mxCell>
      </root>
    </mxGraphModel>
  </diagram>
</mxfile>
